<?xml version="1.0" encoding="UTF-8" standalone="no"?>
<!-- Created with Inkscape (http://www.inkscape.org/) -->

<svg
   xmlns:i="http://ns.adobe.com/AdobeIllustrator/10.0/"
   xmlns:dc="http://purl.org/dc/elements/1.1/"
   xmlns:cc="http://creativecommons.org/ns#"
   xmlns:rdf="http://www.w3.org/1999/02/22-rdf-syntax-ns#"
   xmlns:svg="http://www.w3.org/2000/svg"
   xmlns="http://www.w3.org/2000/svg"
   xmlns:sodipodi="http://sodipodi.sourceforge.net/DTD/sodipodi-0.dtd"
   xmlns:inkscape="http://www.inkscape.org/namespaces/inkscape"
   width="765"
   height="990"
   id="svg2"
   version="1.1"
   inkscape:version="0.48.2 r9819"
   sodipodi:docname="cover.svg">
  <defs
     id="defs4">
    <clipPath
       clipPathUnits="userSpaceOnUse"
       id="clipPath4175">
      <rect
         y="342.50034"
         x="236.69017"
         height="203.71962"
         width="157.41971"
         id="rect4177"
         style="fill:#ff7f01;fill-opacity:1;fill-rule:nonzero;stroke:none" />
    </clipPath>
  </defs>
  <sodipodi:namedview
     id="base"
     pagecolor="#ff7f01"
     bordercolor="#666666"
     borderopacity="1.0"
     inkscape:pageopacity="0"
     inkscape:pageshadow="2"
     inkscape:zoom="0.75050505"
     inkscape:cx="382.5"
     inkscape:cy="495"
     inkscape:document-units="in"
     inkscape:current-layer="layer1"
     showgrid="false"
     units="in"
     inkscape:window-width="1280"
     inkscape:window-height="962"
     inkscape:window-x="-8"
     inkscape:window-y="-8"
     inkscape:window-maximized="1" />
  <metadata
     id="metadata7">
    <rdf:RDF>
      <cc:Work
         rdf:about="">
        <dc:format>image/svg+xml</dc:format>
        <dc:type
           rdf:resource="http://purl.org/dc/dcmitype/StillImage" />
        <dc:title></dc:title>
      </cc:Work>
    </rdf:RDF>
  </metadata>
  <g
     inkscape:label="Layer 1"
     inkscape:groupmode="layer"
     id="layer1"
     transform="translate(0,-62.35975)">
    <rect
       style="fill:#dd4814;fill-opacity:1;fill-rule:nonzero;stroke:none"
       id="rect4113"
       width="765"
       height="990"
       x="0"
       y="62.359726" />
    <g
       id="g4133"
       transform="matrix(4.8596204,0,0,4.8596204,-1150.2244,-1602.0619)"
       clip-path="url(#clipPath4175)">
      <circle
         transform="matrix(0.80110562,0,0,0.80110562,331.37465,489.22743)"
         id="circle15"
         r="9.1239996"
         cy="46.903999"
         cx="9.1239996"
         i:knockout="Off"
         sodipodi:cx="9.1239996"
         sodipodi:cy="46.903999"
         sodipodi:rx="9.1239996"
         sodipodi:ry="9.1239996"
         style="fill:#ff6309"
         d="m 18.247999,46.903999 c 0,5.039046 -4.084954,9.124 -9.1239994,9.124 C 4.0849538,56.027999 0,51.943045 0,46.903999 0,41.864953 4.0849538,37.78 9.1239996,37.78 c 5.0390454,0 9.1239994,4.084953 9.1239994,9.123999 z" />
      <circle
         transform="matrix(0.80110562,0,0,0.80110562,331.37465,489.22743)"
         id="circle17"
         r="9.1239996"
         cy="84.667"
         cx="74.547997"
         i:knockout="Off"
         sodipodi:cx="74.547997"
         sodipodi:cy="84.667"
         sodipodi:rx="9.1239996"
         sodipodi:ry="9.1239996"
         style="fill:#ffb515"
         d="m 83.671996,84.667 c 0,5.039046 -4.084954,9.123999 -9.123999,9.123999 -5.039046,0 -9.124,-4.084953 -9.124,-9.123999 0,-5.039046 4.084954,-9.124 9.124,-9.124 5.039045,0 9.123999,4.084954 9.123999,9.124 z" />
      <path
         id="path19"
         d="m 373.62416,508.71593 c 9.10136,0 16.65258,6.75812 17.90311,15.51982 h 12.52288 c -0.56878,-6.88471 -3.42312,-13.30156 -8.19531,-18.36215 -3.05622,1.55655 -6.8142,1.58619 -10.00661,-0.25635 -3.19481,-1.84495 -5.04857,-5.11666 -5.22641,-8.54539 -2.26793,-0.52873 -4.61117,-0.80271 -6.99766,-0.80271 -4.56951,0 -8.9852,0.99737 -13.00114,2.88879 l 6.26945,10.85898 c 2.08207,-0.83795 4.35401,-1.30099 6.73169,-1.30099 z"
         i:knockout="Off"
         inkscape:connector-curvature="0"
         style="fill:#ff6309" />
      <path
         id="path21"
         d="m 391.52807,529.36122 c -1.24732,8.7649 -8.80015,15.52703 -17.90391,15.52703 -2.37928,0 -4.65202,-0.46304 -6.73409,-1.3026 l -6.27026,10.85979 c 4.01514,1.89221 8.43244,2.89039 13.00355,2.89039 2.38809,0 4.73453,-0.27558 7.00326,-0.80431 0.17464,-3.43274 2.0292,-6.71006 5.22642,-8.55581 3.1932,-1.84415 6.95279,-1.8145 10.00981,-0.25475 4.76818,-5.06139 7.61932,-11.47744 8.1865,-18.35974 h -12.52128 z"
         i:knockout="Off"
         inkscape:connector-curvature="0"
         style="fill:#c90016" />
      <path
         id="path23"
         d="m 355.5384,526.80249 c 0,-5.76235 2.70854,-10.90305 6.91835,-14.21722 l -6.26785,-10.85739 c -1.47003,1.02702 -2.86075,2.18942 -4.15614,3.48401 -3.62741,3.62741 -6.2286,8.00705 -7.66017,12.78725 2.88398,1.86818 4.79381,5.11105 4.79381,8.80335 0,3.69149 -1.90983,6.93517 -4.79381,8.80255 1.43157,4.78019 4.03276,9.15984 7.66017,12.78724 1.29459,1.29459 2.6837,2.45539 4.15293,3.48321 l 6.26865,-10.85818 c -4.20901,-3.31418 -6.91594,-8.45487 -6.91594,-14.21482 z"
         i:knockout="Off"
         inkscape:connector-curvature="0"
         style="fill:#ffb515" />
      <circle
         transform="matrix(0.80110562,0,0,0.80110562,331.37465,489.22743)"
         id="circle25"
         r="9.1239996"
         cy="9.1260004"
         cx="74.540001"
         i:knockout="Off"
         sodipodi:cx="74.540001"
         sodipodi:cy="9.1260004"
         sodipodi:rx="9.1239996"
         sodipodi:ry="9.1239996"
         style="fill:#c90016"
         d="m 83.664001,9.1260004 c 0,5.0390456 -4.084954,9.1239996 -9.124,9.1239996 -5.039046,0 -9.124,-4.084954 -9.124,-9.1239996 0,-5.0390458 4.084954,-9.12399959 9.124,-9.12399959 5.039046,0 9.124,4.08495379 9.124,9.12399959 z" />
    </g>
    <g
       id="g4257"
       transform="translate(-1.2597504,0)">
      <g
         transform="translate(-40.064698,8.537598)"
         id="g4141">
        <path
           inkscape:connector-curvature="0"
           i:knockout="Off"
           d="m 592.14815,513.9111 c 0,-1.60622 0.3629,-2.80067 1.0903,-3.58495 0.7242,-0.80271 1.68633,-1.20326 2.88398,-1.20486 1.21768,0 2.19824,0.40215 2.94487,1.20486 0.74663,0.80351 1.11834,1.99796 1.11994,3.58495 v 10.436 c 0,2.96329 0.20188,5.02774 0.61045,6.19014 0.40856,1.14158 1.05745,2.03401 1.95309,2.67329 0.91086,0.63928 2.0276,0.95732 3.34702,0.95732 1.32022,0 2.43616,-0.30922 3.34862,-0.93008 0.93089,-0.63928 1.61904,-1.56857 2.06685,-2.78785 0.33006,-0.91086 0.49429,-2.85674 0.49589,-5.84166 v -10.73482 c 0,-1.59339 0.3613,-2.77903 1.08149,-3.5561 0.721,-0.7963 1.67591,-1.19445 2.86475,-1.19605 1.20647,0 2.17981,0.39975 2.92084,1.19605 0.73862,0.7971 1.10793,1.98273 1.11113,3.5561 v 8.64313 c 0,5.52042 -0.43821,9.29844 -1.31141,11.33324 -1.06868,2.47943 -2.64125,4.38686 -4.71771,5.7239 -2.07647,1.31622 -4.71611,1.97473 -7.91893,1.97553 -3.4752,0 -6.29028,-0.77547 -8.44445,-2.32401 -2.13415,-1.54934 -3.63943,-3.70992 -4.51263,-6.47934 -0.62086,-1.91865 -0.93089,-5.40506 -0.93089,-10.46084 l -0.003,-8.37395 0,0 z"
           id="path29" />
        <path
           inkscape:connector-curvature="0"
           i:knockout="Off"
           d="m 530.42056,536.75863 c 0,1.60622 0.3629,2.80066 1.0903,3.58655 0.7258,0.80271 1.68633,1.20326 2.88558,1.20406 1.21768,0 2.19824,-0.40135 2.94487,-1.20406 0.74503,-0.80351 1.11754,-1.99796 1.11754,-3.58655 l 0.002,-10.436 c 0,-2.96329 0.20348,-5.02614 0.61045,-6.18855 0.40856,-1.14317 1.05745,-2.034 1.95309,-2.67248 0.91086,-0.63929 2.0276,-0.95893 3.34702,-0.95893 1.31942,0 2.43616,0.31003 3.34862,0.93009 0.93249,0.63928 1.62064,1.56936 2.06846,2.78945 0.32845,0.91005 0.49268,2.85594 0.49428,5.84086 v 10.73401 c 0,1.5942 0.3613,2.77904 1.08309,3.55771 0.7194,0.7963 1.67431,1.19365 2.86155,1.19445 1.20807,0 2.18302,-0.39815 2.92244,-1.19445 0.73862,-0.7979 1.10792,-1.98273 1.10953,-3.55771 v -8.64393 c 0,-5.52122 -0.43661,-9.29763 -1.30981,-11.33244 -1.06707,-2.47942 -2.63964,-4.38765 -4.71611,-5.7247 -2.07807,-1.31622 -4.71771,-1.97472 -7.92053,-1.97553 -3.4752,0 -6.28868,0.77547 -8.44446,2.32481 -2.13414,1.54854 -3.63942,3.70832 -4.51262,6.47854 -0.62086,1.91785 -0.93089,5.40506 -0.93089,10.46084 l -0.004,8.37396 0,0 z"
           id="path31" />
        <path
           inkscape:connector-curvature="0"
           i:knockout="Off"
           d="m 494.03194,513.9111 c 0,-1.60622 0.3629,-2.80067 1.0887,-3.58495 0.7258,-0.80271 1.68633,-1.20326 2.88718,-1.20486 1.21608,0 2.19663,0.40215 2.94327,1.20486 0.74663,0.80351 1.11834,1.99796 1.11834,3.58495 v 10.436 c 0,2.96329 0.20508,5.02774 0.61365,6.19014 0.40696,1.14158 1.05585,2.03401 1.94989,2.67329 0.91246,0.63928 2.0276,0.95732 3.34862,0.95732 1.31862,0 2.43616,-0.30922 3.34862,-0.93008 0.93088,-0.63928 1.62064,-1.56857 2.06685,-2.78785 0.32846,-0.91086 0.49428,-2.85674 0.49589,-5.84166 v -10.73482 c 0,-1.59339 0.3613,-2.77903 1.08149,-3.5561 0.71939,-0.7963 1.67591,-1.19445 2.86475,-1.19605 1.20487,0 2.17981,0.39975 2.92083,1.19605 0.73862,0.7971 1.10954,1.98273 1.10954,3.5561 v 8.64313 c 0,5.52042 -0.43661,9.29844 -1.31141,11.33324 -1.06708,2.47943 -2.63965,4.38686 -4.71611,5.7239 -2.07807,1.31622 -4.71771,1.97473 -7.92053,1.97553 -3.4736,0 -6.28708,-0.77547 -8.44286,-2.32401 -2.13414,-1.54934 -3.63782,-3.70992 -4.51262,-6.47934 -0.62086,-1.91865 -0.93089,-5.40506 -0.93089,-10.46084 l -0.003,-8.37395 0,0 z"
           id="path33" />
        <path
           inkscape:connector-curvature="0"
           i:knockout="Off"
           d="m 422.02135,513.9111 c 0,-1.60622 0.3629,-2.80067 1.08951,-3.58495 0.7258,-0.80271 1.68713,-1.20326 2.88558,-1.20486 1.21608,0 2.19823,0.40215 2.94486,1.20486 0.73862,0.7971 1.11194,1.98113 1.11835,3.54729 v 10.47366 c 0,2.96329 0.20348,5.02774 0.61124,6.19014 0.40776,1.14158 1.05666,2.03401 1.95069,2.67329 0.91166,0.63928 2.0284,0.95732 3.34862,0.95732 1.31862,0 2.43617,-0.30922 3.34863,-0.93008 0.93088,-0.63928 1.61983,-1.56857 2.06685,-2.78785 0.33005,-0.91086 0.49428,-2.85674 0.49588,-5.84166 v -10.73482 c 0,-1.59339 0.3613,-2.77903 1.0823,-3.5561 0.72019,-0.7963 1.67511,-1.19445 2.86315,-1.19605 1.20726,0 2.18141,0.39975 2.92163,1.19605 0.73942,0.7971 1.10953,1.98273 1.11033,3.5561 v 8.64313 c 0,5.52042 -0.4366,9.29844 -1.31061,11.33324 -1.06787,2.47943 -2.64044,4.38686 -4.71691,5.7239 -2.07806,1.31622 -4.71691,1.97473 -7.91973,1.97553 -3.47439,0 -6.28868,-0.77547 -8.44365,-2.32401 -2.13575,-1.54934 -3.63942,-3.70992 -4.51263,-6.47934 -0.62166,-1.91865 -0.93248,-5.40506 -0.93248,-10.46084 l -0.002,-8.37395 0,0 z"
           id="path35" />
        <path
           inkscape:connector-curvature="0"
           i:knockout="Off"
           d="m 484.75193,516.8103 c -0.10655,-0.24674 -0.2171,-0.48788 -0.33326,-0.7226 0.18345,0.37892 0.35489,0.77627 0.51671,1.18884 -0.0601,-0.16423 -0.12097,-0.31964 -0.18345,-0.46624 l 0,0 z m -26.47814,8.61989 0.0144,-0.47425 c -0.01,-0.0441 -0.0144,-0.0969 -0.0144,-0.16022 v -21.41355 c 0,-1.31222 0.0296,-2.33603 0.0889,-3.07224 0.0793,-0.75465 0.27878,-1.40114 0.59842,-1.93788 0.31804,-0.55597 0.77628,-1.00378 1.3747,-1.34265 0.59683,-0.3581 1.26415,-0.53674 2.00277,-0.53674 1.03502,0 1.97152,0.38773 2.80867,1.1632 0.55757,0.51752 0.90605,1.15359 1.04544,1.90824 0.15862,0.73621 0.23873,1.78967 0.23954,3.16196 v 8.21694 c 1.64306,-0.59122 3.37826,-1.83293 6.76133,-1.83293 3.20282,0.002 4.76337,0.65931 6.84064,1.97633 1.09911,0.70737 2.05644,1.57497 2.87517,2.60359 0.57118,0.7202 1.07508,1.5189 1.50848,2.39691 0.11616,0.23472 0.22671,0.47586 0.33326,0.7226 0.0625,0.1466 0.12337,0.30121 0.18345,0.46624 0.87801,2.27194 1.39392,5.04536 1.39392,8.0415 0,2.94006 -0.49908,5.66862 -1.34906,7.91652 -0.0721,0.2163 -0.149,0.41658 -0.22831,0.60404 -0.22832,0.52873 -0.48067,1.03342 -0.75545,1.51088 -0.2235,0.39254 -0.46464,0.76666 -0.72099,1.12315 -0.89163,1.24252 -1.97152,2.27114 -3.23967,3.08907 -2.07727,1.31621 -4.71691,1.97472 -7.91973,1.97552 -3.4744,0 -6.28868,-0.77547 -8.44365,-2.324 -2.13575,-1.54934 -3.63943,-3.70992 -4.51263,-6.47935 -0.48227,-1.48925 -0.77788,-3.92381 -0.88522,-7.30288 l 0,0 z m 17.55703,8.58786 c 0.76505,-0.52393 1.3811,-1.2273 1.84895,-2.10851 0.0681,-0.0777 0.12497,-0.16183 0.16903,-0.25315 0.83555,-1.74561 1.33224,-3.92382 1.33224,-6.28388 0,-2.27994 -0.46224,-4.38765 -1.24652,-6.10202 -0.48948,-1.13356 -1.19044,-2.01398 -2.1037,-2.63964 -1.00379,-0.68254 -2.23108,-1.02301 -3.68269,-1.02301 -1.4516,0 -2.6805,0.35168 -3.68348,1.05505 -0.98216,0.70337 -1.69754,1.68393 -2.14536,2.94086 -0.34207,0.97335 -0.55276,2.52268 -0.63448,4.64722 -0.0336,3.28934 0.18987,5.52843 0.63448,6.79497 0.44782,1.25854 1.1632,2.23749 2.14536,2.94006 1.00298,0.70498 2.23188,1.05506 3.68348,1.05506 1.45161,0 2.6789,-0.33967 3.68269,-1.02301 l 0,0 z"
           id="path37" />
        <path
           inkscape:connector-curvature="0"
           i:knockout="Off"
           d="m 567.88346,508.56131 h 0.89804 v -4.98127 c 0,-1.33625 0.028,-2.37929 0.0873,-3.12912 0.0801,-0.76906 0.28039,-1.42677 0.59762,-1.97473 0.31884,-0.56718 0.77628,-1.02221 1.3755,-1.36668 0.59763,-0.36531 1.26255,-0.54716 2.00116,-0.54716 1.03583,0 1.97153,0.39495 2.80868,1.18484 0.55837,0.52632 0.90605,1.17442 1.04705,1.94428 0.15781,0.74984 0.23792,1.82172 0.23792,3.21884 v 5.6502 h 2.98813 c 1.15279,0 2.0308,0.28359 2.62843,0.85078 0.61765,0.54635 0.92607,1.25533 0.92607,2.12613 0,1.11434 -0.4382,1.89301 -1.31461,2.33843 -0.85718,0.44621 -2.09169,0.66812 -3.70351,0.66812 h -1.52531 v 15.24824 c 0,1.29619 0.0393,2.29998 0.12017,3.00816 0.0985,0.68734 0.33807,1.25453 0.71779,1.70074 0.39575,0.42539 1.03423,0.63688 1.91064,0.63688 0.47906,0 1.12635,-0.0809 1.94348,-0.24353 0.81552,-0.18186 1.4532,-0.27318 1.91224,-0.27318 0.6569,0 1.24412,0.27318 1.76163,0.82033 0.53834,0.52793 0.80751,1.18564 0.80751,1.97393 0,1.33704 -0.71699,2.35925 -2.15177,3.06823 -1.43478,0.70738 -3.49682,1.06227 -6.18373,1.06307 -2.55232,0 -4.48459,-0.4358 -5.7984,-1.30581 -1.31382,-0.87 -2.17981,-2.07486 -2.59879,-3.61458 -0.39895,-1.53973 -0.59602,-3.59456 -0.59602,-6.16611 v -15.91477 h -1.07669 c -1.17522,0 -2.07326,-0.28279 -2.68931,-0.85077 -0.61925,-0.56718 -0.92448,-1.28498 -0.92448,-2.15578 0,-0.8708 0.31644,-1.57898 0.95572,-2.12613 0.65611,-0.56718 1.60141,-0.85078 2.83752,-0.85158 l 0,0 z"
           id="path39" />
      </g>
      <text
         sodipodi:linespacing="125%"
         id="text3034"
         y="542.12885"
         x="84.648102"
         style="font-size:40px;font-style:normal;font-variant:normal;font-weight:normal;font-stretch:normal;line-height:125%;letter-spacing:0px;word-spacing:0px;fill:#000000;fill-opacity:1;stroke:none;font-family:Segoe UI;-inkscape-font-specification:Segoe UI"
         xml:space="preserve"><tspan
           style="fill:#ffffff"
           id="tspan3040"
           y="542.12885"
           x="84.648102"
           sodipodi:role="line">the little orange</tspan></text>
      <text
         sodipodi:linespacing="125%"
         id="text3034-7"
         y="542.12885"
         x="591.79718"
         style="font-size:40px;font-style:normal;font-variant:normal;font-weight:normal;font-stretch:normal;line-height:125%;letter-spacing:0px;word-spacing:0px;fill:#000000;fill-opacity:1;stroke:none;font-family:Segoe UI;-inkscape-font-specification:Segoe UI"
         xml:space="preserve"><tspan
           style="fill:#ffffff"
           id="tspan3040-6"
           y="542.12885"
           x="591.79718"
           sodipodi:role="line">book</tspan></text>
    </g>
    <text
       xml:space="preserve"
       style="font-size:31.89456557999999800px;font-style:normal;font-weight:normal;line-height:125%;letter-spacing:0px;word-spacing:0px;fill:#ff8f45;fill-opacity:1;stroke:none;font-family:Sans"
       x="199.0128"
       y="602.1828"
       id="text4089"
       sodipodi:linespacing="125%"><tspan
         sodipodi:role="line"
         id="tspan4091"
         x="199.0128"
         y="602.1828"
         style="font-style:normal;font-variant:normal;font-weight:normal;font-stretch:normal;fill:#ff8f45;font-family:Segoe UI;-inkscape-font-specification:Segoe UI;fill-opacity:1">edited by James R. Gifford</tspan></text>
  </g>
</svg>
